<?xml version="1.0" encoding="utf-8"?>
<!-- Generator: Adobe Illustrator 25.4.1, SVG Export Plug-In . SVG Version: 6.00 Build 0)  -->
<svg version="1.1" id="Layer_1" xmlns="http://www.w3.org/2000/svg" xmlns:xlink="http://www.w3.org/1999/xlink" x="0px" y="0px"
	 viewBox="0 0 111.7 111.7" style="enable-background:new 0 0 111.7 111.7;" xml:space="preserve">
<style type="text/css">
	.st0{fill:#3E3C48;}
	.st1{filter:url(#Filter_1);}
</style>
<filter  color-interpolation-filters="sRGB" height="140%" id="Filter_1" width="140%" x="-20%" y="-20%">
	<feColorMatrix  in="SourceGraphic" result="result1" type="matrix" values="1 0 0 0 0 0 1 0 0 0 0 0 1 0 0 0 0 0 0 0">
		</feColorMatrix>
</filter>
<g id="Layer_1_00000174597720893060412230000004650377797751953820_">
	
		<g id="Layer_1_00000023988639542158678570000002516150713236831370_" transform="matrix( 3.1513824462890625, 0, 0, 3.1513824462890625, 41.85,74.75) ">
		<g id="Layer_1_00000068648430470480257220000006637170131280370322_" transform="matrix( 1, 0, 0, 1, 0.05,0.05) ">
			<g transform="matrix( 1.0652618408203125, 0, 0, 1, -6.95,-12.6) ">
				<g>
					<g>
						<path class="st0" d="M-1.8,10.8V8.2h9.4V-6.1h-13L-5.4,11c0.3,2.6,1.4,4.6,3.2,6.1c1.6,1.3,3.6,1.9,5.9,1.9h2.1v-3.6H3.7
							c-1.8,0-3.1-0.5-4.1-1.6C-1.1,13.1-1.6,12.1-1.8,10.8 M-1.8,4.8V-3h5.7v7.8H-1.8z"/>
					</g>
				</g>
			</g>
		</g>
	</g>
</g>
<g id="Layer_1_00000126301246623078822020000016892618517570677915_">
	<g id="Layer_1_00000050640359921615637480000000995170920654105480_" transform="matrix( 1, 0, 0, 1, 66.3,74.8) ">
		<g transform="matrix( 1.003509521484375, 0, 0, 1, -6.95,-12.6) ">
			<g class="st1">
				<g>
					<path class="st0" d="M-4.3-15.9v-3.2h-12.8c-0.4,0-0.7,0.2-0.8,0.6c-0.2,0.4-0.1,0.7,0.2,0.9c1.9,1.9,3.3,3.5,4.3,5l2,2.6
						c1.2,1.6,2,3.1,2.5,4.3C-8.2-4.2-8-2.6-8.3-1c-0.1,1.1-0.5,2.1-1.2,2.9c-0.3,0.4-0.6,0.6-1.1,0.7c-0.5,0.1-0.9,0.1-1.3,0
						c-1.1-0.4-1.8-1.4-2.1-3.1c-0.5-2.9,0.2-5.7,1.9-8.5l-2.4-2.9c-0.2,0.2-0.5,0.5-0.7,0.9c-1.3,2.1-2.2,4-2.5,5.8
						c-0.4,2.1-0.2,4.2,0.5,6.4c1.1,3.2,3.2,4.8,6.5,4.8c1.3,0,2.5-0.5,3.6-1.5C-6.1,3.6-5.4,2.4-5,1C-4-3.2-4.8-7.2-7.5-11
						l-3.5-4.9H-4.3z"/>
				</g>
			</g>
		</g>
	</g>
</g>
<g id="Layer_1_00000145031614437981645000000007813106522031058602_">
	<g id="Layer_1_00000119825835590628010970000005256494501290180020_" transform="matrix( 1, 0, 0, 1, 108.3,74.9) ">
		<g transform="matrix( 1.00360107421875, 0, 0, 1, -6.9,-12.5) ">
			<g class="st1">
				<g>
					<path class="st0" d="M-4.3-16v-3.1h-13.8v3.2h5v7.8h-3.4v3.3h3.4v7.5h-5v3.2h9V-16H-4.3z"/>
				</g>
			</g>
		</g>
	</g>
</g>
<g id="Layer_1_00000065032439172962549560000007677308336948115589_">
	<g id="Layer_1_00000135683189393007975680000002592765950223150735_" transform="matrix( 1, 0, 0, 1, 159.15,74.7) ">
		<g transform="matrix( 1, 0, 0, 1, -6.9,-12.5) ">
			<g class="st1">
				<g>
					<path class="st0" d="M-3.3-15.9v-3.2h-8.9V2.7h-4.9v3.1h13.9l-0.1-3.2h-4.9v-7.8h3.4v-3.2h-3.4v-7.5H-3.3z"/>
				</g>
			</g>
		</g>
	</g>
</g>
<g id="Layer_1_00000098936850686813339800000006530020443328066470_">
	<g id="Layer_1_00000091007214862964241150000006845821605975955357_" transform="matrix( 1, 0, 0, 1, 223.8,74.8) ">
		<g transform="matrix( 1.003509521484375, 0, 0, 1, -6.9,-12.6) ">
			<g class="st1">
				<g>
					<path class="st0" d="M-3.5-8c0.4-2.1,0.2-4.2-0.5-6.4c-1.1-3.2-3.2-4.8-6.5-4.8c-1.4,0-2.6,0.5-3.6,1.5
						c-1.1,0.9-1.8,2.1-2.2,3.6c-1,4.2-0.2,8.1,2.5,11.9l3.5,5h-6.7V6h12.8c0.4,0,0.7-0.2,0.8-0.5c0.1-0.4,0.1-0.7-0.2-1
						c-2-2-3.4-3.7-4.3-5L-9.9-3c-1.2-1.6-2-3-2.5-4.3c-0.6-1.6-0.8-3.2-0.6-4.8c0.1-1,0.5-2,1.2-2.9c0.3-0.4,0.7-0.6,1.1-0.8
						c0.4-0.1,0.9-0.1,1.3,0.1c1.1,0.5,1.8,1.5,2.1,3.2C-6.8-9.8-7.4-7-9.1-4.1l2.4,2.9L-6-2.2C-4.7-4.3-3.8-6.2-3.5-8z"/>
				</g>
			</g>
		</g>
	</g>
</g>
<g id="Layer_1_00000049901047044792111270000004285634462416897975_">
	
		<g id="Layer_1_00000054961490125335180930000007142797325952639116_" transform="matrix( 3.1513824462890625, 0, 0, 3.1513824462890625, 105.95,74.9) ">
		<g transform="matrix( 1.0652618408203125, 0, 0, 1, -6.9,-12.6) ">
			<g>
				<g>
					<path class="st0" d="M-1.5-2.5c3.1,0,4.9,1.5,5.5,4.6v2.7h-9.4v14.3h13V2C7.3-0.7,6.2-2.7,4.3-4.1c-1.6-1.3-3.6-2-5.8-2h-2v3.6
						H-1.5 M4,8.2V16h-5.7V8.2H4z"/>
				</g>
			</g>
		</g>
	</g>
</g>
</svg>
